<svg xmlns="http://www.w3.org/2000/svg" viewBox="0 0 34 34"><g id="图层_2" data-name="图层 2"><g id="stop"><circle cx="17" cy="17" r="17" fill="#1e40ae"/><path d="M10.4,21.59,14,21.15a3.42,3.42,0,0,0,.92,2.1,2.55,2.55,0,0,0,1.82.72,2.48,2.48,0,0,0,1.93-.87,3.33,3.33,0,0,0,.79-2.34,3.17,3.17,0,0,0-.75-2.22,2.41,2.41,0,0,0-1.83-.82,6.71,6.71,0,0,0-1.71.28l.41-3a3.24,3.24,0,0,0,2.3-.65,2.31,2.31,0,0,0,.79-1.84,2,2,0,0,0-2.12-2.14A2.24,2.24,0,0,0,14.9,11a3.13,3.13,0,0,0-.81,1.93l-3.42-.58a7.65,7.65,0,0,1,1.08-2.8,4.82,4.82,0,0,1,2-1.65,6.75,6.75,0,0,1,2.88-.6A5.75,5.75,0,0,1,21,9.05a4.57,4.57,0,0,1,1.36,3.22c0,1.69-.93,3.05-2.79,4.06a4.48,4.48,0,0,1,2.66,1.59,4.68,4.68,0,0,1,1,3,5.79,5.79,0,0,1-1.86,4.33,6.39,6.39,0,0,1-4.63,1.8,6.4,6.4,0,0,1-4.35-1.51A5.94,5.94,0,0,1,10.4,21.59Z" transform="translate(0 -0.06)" fill="#fff"/></g></g></svg>