<svg xmlns="http://www.w3.org/2000/svg" viewBox="0 0 34 34"><g id="图层_2" data-name="图层 2"><g id="stop"><circle cx="17" cy="17" r="17" fill="#581e87"/><path d="M13.7,16.29a4.41,4.41,0,0,1-2.09-1.67A4.4,4.4,0,0,1,11,12.29a4.7,4.7,0,0,1,1.51-3.57,6.06,6.06,0,0,1,4.29-1.41A6.05,6.05,0,0,1,21,8.72a4.64,4.64,0,0,1,1.52,3.57,4.27,4.27,0,0,1-.69,2.4,4.55,4.55,0,0,1-2,1.6,5.24,5.24,0,0,1,2.45,1.88A5.05,5.05,0,0,1,23.18,21a5.83,5.83,0,0,1-1.7,4.35,6.22,6.22,0,0,1-4.55,1.68,6.84,6.84,0,0,1-4.39-1.39,5.39,5.39,0,0,1-2.07-4.48,5.56,5.56,0,0,1,.78-2.88A5,5,0,0,1,13.7,16.29Zm.43,4.55a3.4,3.4,0,0,0,.78,2.38,2.56,2.56,0,0,0,2,.86,2.47,2.47,0,0,0,1.9-.83,3.39,3.39,0,0,0,.75-2.37,3.1,3.1,0,0,0-.77-2.19,2.51,2.51,0,0,0-1.93-.82,2.32,2.32,0,0,0-2,.94A3.44,3.44,0,0,0,14.13,20.84Zm.34-8.28a2.3,2.3,0,0,0,.63,1.72,2.22,2.22,0,0,0,1.66.62,2.31,2.31,0,0,0,1.69-.62,2.35,2.35,0,0,0,.63-1.74,2.15,2.15,0,0,0-2.28-2.29,2.3,2.3,0,0,0-1.7.63A2.27,2.27,0,0,0,14.47,12.56Z" transform="translate(0 -0.06)" fill="#fff"/></g></g></svg>