<svg xmlns="http://www.w3.org/2000/svg" viewBox="0 0 34 34"><g id="图层_2" data-name="图层 2"><g id="stop"><circle cx="17" cy="17" r="17" fill="#ffb620"/><path d="M23,23.27v3.45h-13A9,9,0,0,1,11.32,23a24.55,24.55,0,0,1,4.16-4.64,26.62,26.62,0,0,0,3.08-3.16A4.05,4.05,0,0,0,19.32,13a2.55,2.55,0,0,0-.67-1.9,2.44,2.44,0,0,0-1.83-.67,2.46,2.46,0,0,0-1.85.7,3.58,3.58,0,0,0-.79,2.32L10.49,13a6.06,6.06,0,0,1,2.07-4.39,6.93,6.93,0,0,1,4.35-1.33A6.26,6.26,0,0,1,21.4,8.85,5.07,5.07,0,0,1,23,12.69a6.67,6.67,0,0,1-.47,2.48,10.37,10.37,0,0,1-1.48,2.48,23.94,23.94,0,0,1-2.43,2.46c-1.17,1.07-1.91,1.78-2.22,2.14a7.07,7.07,0,0,0-.76,1Z" transform="translate(0 -0.06)" fill="#fff"/></g></g></svg>