<svg xmlns="http://www.w3.org/2000/svg" viewBox="0 0 34 34"><g id="图层_2" data-name="图层 2"><g id="stop"><circle cx="17" cy="17" r="17" fill="#0aa2ff"/><path d="M23.08,12.12l-3.59.4a2.62,2.62,0,0,0-.68-1.64,2,2,0,0,0-1.44-.53,2.44,2.44,0,0,0-2,1.06c-.54.7-.89,2.17-1,4.39a4.34,4.34,0,0,1,3.44-1.63,5.24,5.24,0,0,1,4,1.76,6.42,6.42,0,0,1,1.65,4.56,6.53,6.53,0,0,1-1.74,4.76,5.94,5.94,0,0,1-4.47,1.8,6,6,0,0,1-4.81-2.28q-1.87-2.28-1.88-7.45,0-5.33,2-7.66a6.33,6.33,0,0,1,5.1-2.35,5.43,5.43,0,0,1,3.65,1.23A5.83,5.83,0,0,1,23.08,12.12Zm-8.4,8.08A4.2,4.2,0,0,0,15.51,23a2.43,2.43,0,0,0,1.9,1,2.12,2.12,0,0,0,1.71-.8,4.05,4.05,0,0,0,.69-2.64,4.27,4.27,0,0,0-.74-2.76,2.33,2.33,0,0,0-1.85-.88,2.3,2.3,0,0,0-1.8.84A3.64,3.64,0,0,0,14.68,20.2Z" transform="translate(0 -0.06)" fill="#fff"/></g></g></svg>